{
	"asset":{
		"generator":"Khronos glTF Blender I/O v5.0.21",
		"version":"2.0"
	},
	"scene":0,
	"scenes":[
		{
			"name":"Scene",
			"nodes":[
				0
			]
		}
	],
	"nodes":[
		{
			"mesh":0,
			"name":"legR",
			"rotation":[
				-0.0010405817301943898,
				0.008726644329726696,
				0.9999613761901855,
				9.081138159672264e-06
			],
			"scale":[
				0.25999999046325684,
				0.7000000476837158,
				0.3199999928474426
			],
			"translation":[
				-0.1803763061761856,
				-0.1681516170501709,
				0
			]
		}
	],
	"meshes":[
		{
			"name":"Cylinder.003",
			"primitives":[
				{
					"attributes":{
						"POSITION":0,
						"NORMAL":1,
						"TEXCOORD_0":2
					},
					"indices":3
				}
			]
		}
	],
	"accessors":[
		{
			"bufferView":0,
			"componentType":5126,
			"count":4555,
			"max":[
				1.2019965648651123,
				-0.23817124962806702,
				1.5588825941085815
			],
			"min":[
				-2.63026762008667,
				-2.6711432933807373,
				-0.6431241035461426
			],
			"type":"VEC3"
		},
		{
			"bufferView":1,
			"componentType":5126,
			"count":4555,
			"type":"VEC3"
		},
		{
			"bufferView":2,
			"componentType":5126,
			"count":4555,
			"type":"VEC2"
		},
		{
			"bufferView":3,
			"componentType":5123,
			"count":7830,
			"type":"SCALAR"
		}
	],
	"bufferViews":[
		{
			"buffer":0,
			"byteLength":54660,
			"byteOffset":0,
			"target":34962
		},
		{
			"buffer":0,
			"byteLength":54660,
			"byteOffset":54660,
			"target":34962
		},
		{
			"buffer":0,
			"byteLength":36440,
			"byteOffset":109320,
			"target":34962
		},
		{
			"buffer":0,
			"byteLength":15660,
			"byteOffset":145760,
			"target":34963
		}
	],
	"buffers":[
		{
			"byteLength":161420,
			"uri":"Ash_monster.bin"
		}
	]
}
